<svg xmlns="http://www.w3.org/2000/svg" id="_001-instagram" width="30" height="30" data-name="001-instagram" viewBox="0 0 30 30">
    <defs>
        <style>
            .cls-1{fill:#fff}
        </style>
    </defs>
    <path id="Caminho_9" d="M33.751 23.88H26a2.246 2.246 0 0 0-2.243 2.243v7.749A2.246 2.246 0 0 0 26 36.116h7.749a2.246 2.246 0 0 0 2.243-2.243v-7.75a2.246 2.246 0 0 0-2.241-2.243zm-3.874 10.146A4.028 4.028 0 1 1 33.9 30a4.033 4.033 0 0 1-4.023 4.026zm4.157-7.226a.953.953 0 1 1 .953-.953.954.954 0 0 1-.953.953z" class="cls-1" data-name="Caminho 9" transform="translate(-14.877 -14.953)"/>
    <path id="Caminho_10" d="M39.175 36.971A2.326 2.326 0 1 0 41.5 39.3a2.329 2.329 0 0 0-2.325-2.329z" class="cls-1" data-name="Caminho 10" transform="translate(-24.175 -24.255)"/>
    <path id="Caminho_11" d="M15 0a15 15 0 1 0 15 15A15 15 0 0 0 15 0zm9.023 19.511a4.557 4.557 0 0 1-4.552 4.552h-8.942a4.557 4.557 0 0 1-4.552-4.552V10.57a4.557 4.557 0 0 1 4.552-4.552h8.941a4.557 4.557 0 0 1 4.552 4.552z" class="cls-1" data-name="Caminho 11"/>
</svg>
