<svg xmlns="http://www.w3.org/2000/svg" width="30" height="30" viewBox="0 0 30 30">
    <defs>
        <style>
            .cls-1{fill:#f78229}
        </style>
    </defs>
    <path id="linkedin_laranja" d="M31.214 14.466a15 15 0 1 0 4.4 10.61 15 15 0 0 0-4.4-10.61zm-14.3 17.293H13.8V21.73h3.112zM15.356 20.42a1.867 1.867 0 1 1 1.844-1.868 1.843 1.843 0 0 1-1.852 1.867zm13.19 11.339h-3.09v-5.267c0-1.441-.548-2.244-1.69-2.244-1.245 0-1.892.837-1.892 2.244v5.266H18.9V21.73h2.976v1.351a3.5 3.5 0 0 1 3.024-1.656c2.126 0 3.648 1.3 3.648 3.984z" class="cls-1" transform="translate(-5.615 -10.08)"/>
</svg>
