<svg xmlns="http://www.w3.org/2000/svg" width="30" height="30" viewBox="0 0 30 30">
    <defs>
        <style>
            .cls-1{fill:#f78229}
        </style>
    </defs>
    <path id="twitter_laranja" d="M42.066 20.329a15 15 0 1 0 4.39 10.6 15 15 0 0 0-4.39-10.6zm-4.254 7.339a9.319 9.319 0 0 1-14.339 8.278 6.566 6.566 0 0 0 4.85-1.358 3.285 3.285 0 0 1-3.062-2.263 3.311 3.311 0 0 0 1.482-.053 3.281 3.281 0 0 1-2.64-3.255 3.338 3.338 0 0 0 1.486.411 3.281 3.281 0 0 1-1.007-4.394 9.289 9.289 0 0 0 6.755 3.424 3.281 3.281 0 0 1 5.586-2.991 6.445 6.445 0 0 0 2.082-.8 3.277 3.277 0 0 1-1.441 1.814 6.645 6.645 0 0 0 1.886-.513 6.657 6.657 0 0 1-1.638 1.7z" class="cls-1" transform="translate(-16.456 -15.933)"/>
</svg>
