<svg xmlns="http://www.w3.org/2000/svg" width="30" height="30" viewBox="0 0 30 30">
    <defs>
        <style>
            .cls-1{fill:#f78229}
        </style>
    </defs>
    <g id="whatsapp_laranja" transform="translate(-.085 -.05)">
        <path id="Caminho_42" d="M38.529 33a6.787 6.787 0 0 0-6.766 6.081 6.778 6.778 0 0 0-.033.652 6.718 6.718 0 0 0 1.292 3.958l-.847 2.509 2.625-.834a6.8 6.8 0 0 0 10.527-5.63 3.854 3.854 0 0 0-.024-.523A6.784 6.784 0 0 0 38.529 33zm3.964 9.519a2 2 0 0 1-1.333.936c-.365.039-.368.3-2.392-.49a7.973 7.973 0 0 1-3.381-2.975 4.383 4.383 0 0 1-.712-1.36 2.61 2.61 0 0 1-.1-.67 2.2 2.2 0 0 1 .694-1.641.732.732 0 0 1 .532-.248c.132 0 .26.021.377.021s.281-.069.445.326.571 1.366.625 1.462a.353.353 0 0 1 0 .344 7.102 7.102 0 0 1-.126.233c-.024.027-.045.063-.072.1-.1.111-.209.251-.3.344a.3.3 0 0 0-.087.4 6.108 6.108 0 0 0 1.127 1.354 5.5 5.5 0 0 0 1.593.981c.2.1.317.081.433-.051s.493-.571.628-.768.263-.164.445-.1 1.154.538 1.351.64.332.146.383.227a1.591 1.591 0 0 1-.13.935z" class="cls-1" data-name="Caminho 42" transform="translate(-23.308 -24.899)"/>
        <path id="Caminho_43" d="M29.444 10.456a15 15 0 1 0 4.4 10.613 15 15 0 0 0-4.4-10.613zm-2.392 10.4a8.09 8.09 0 0 1-11.98 7.02L10.588 29.3l1.465-4.3a7.947 7.947 0 0 1-1.153-4.146v-.347a8.087 8.087 0 0 1 16.159.144z" class="cls-1" data-name="Caminho 43" transform="translate(-3.76 -6.02)"/>
    </g>
</svg>
